<svg width="64" height="64" viewBox="0 0 64 64" fill="none" xmlns="http://www.w3.org/2000/svg">
<style>
  path { fill: #070707; }
  @media (prefers-color-scheme: dark) {
    path { fill: #fff; }
  }
</style>
<path d="M28.9834 16.467L22.2349 12.5V24.2378L15.5211 20.3782L2.01386 28.1463L2 43.7072L15.4927 51.5L29 43.7319L28.9834 16.467ZM22.262 39.8407L15.4997 43.7299L8.74498 39.8283L8.75191 32.0375L15.5142 28.149L22.2689 32.0499L22.262 39.8407Z"/>
<path d="M35.0166 47.533L41.7651 51.5V39.7622L48.4789 43.6218L61.9861 35.8537L62 20.2928L48.5073 12.5L35 20.2681L35.0166 47.533ZM41.738 24.1593L48.5003 20.2701L55.255 24.1717L55.2481 31.9625L48.4858 35.851L41.7311 31.9501L41.738 24.1593Z"/>
</svg>
